<mxfile host="app.diagrams.net" modified="2022-11-10T23:13:55.845Z" agent="5.0 (Windows NT 10.0; Win64; x64) AppleWebKit/537.36 (KHTML, like Gecko) Chrome/105.0.0.0 Safari/537.36 OPR/91.0.4516.106" etag="4kdl6rtaBNf01qQaYSIc" version="20.5.2" type="github">
  <diagram id="S8gXFFKtA65dc80RhkoT" name="PÃ¡gina-1">
    <mxGraphModel dx="862" dy="452" grid="1" gridSize="10" guides="1" tooltips="1" connect="1" arrows="1" fold="1" page="1" pageScale="1" pageWidth="827" pageHeight="1169" math="0" shadow="0">
      <root>
        <mxCell id="0" />
        <mxCell id="1" parent="0" />
        <mxCell id="b1GQMifbi-o_4V_aftb0-16" style="edgeStyle=orthogonalEdgeStyle;rounded=0;orthogonalLoop=1;jettySize=auto;html=1;exitX=0.5;exitY=1;exitDx=0;exitDy=0;entryX=0.5;entryY=0;entryDx=0;entryDy=0;" edge="1" parent="1" source="b1GQMifbi-o_4V_aftb0-1" target="b1GQMifbi-o_4V_aftb0-7">
          <mxGeometry relative="1" as="geometry" />
        </mxCell>
        <mxCell id="b1GQMifbi-o_4V_aftb0-1" value="" style="rounded=0;whiteSpace=wrap;html=1;" vertex="1" parent="1">
          <mxGeometry x="354" y="50" width="120" height="60" as="geometry" />
        </mxCell>
        <mxCell id="b1GQMifbi-o_4V_aftb0-14" style="edgeStyle=orthogonalEdgeStyle;rounded=0;orthogonalLoop=1;jettySize=auto;html=1;exitX=0.5;exitY=1;exitDx=0;exitDy=0;" edge="1" parent="1" source="b1GQMifbi-o_4V_aftb0-7" target="b1GQMifbi-o_4V_aftb0-12">
          <mxGeometry relative="1" as="geometry" />
        </mxCell>
        <mxCell id="b1GQMifbi-o_4V_aftb0-7" value="" style="rounded=1;whiteSpace=wrap;html=1;" vertex="1" parent="1">
          <mxGeometry x="324" y="180" width="180" height="90" as="geometry" />
        </mxCell>
        <mxCell id="b1GQMifbi-o_4V_aftb0-11" value="" style="rounded=1;whiteSpace=wrap;html=1;" vertex="1" parent="1">
          <mxGeometry x="324" y="530" width="180" height="90" as="geometry" />
        </mxCell>
        <mxCell id="b1GQMifbi-o_4V_aftb0-15" style="edgeStyle=orthogonalEdgeStyle;rounded=0;orthogonalLoop=1;jettySize=auto;html=1;exitX=0.5;exitY=1;exitDx=0;exitDy=0;" edge="1" parent="1" source="b1GQMifbi-o_4V_aftb0-12" target="b1GQMifbi-o_4V_aftb0-11">
          <mxGeometry relative="1" as="geometry" />
        </mxCell>
        <mxCell id="b1GQMifbi-o_4V_aftb0-12" value="" style="rounded=1;whiteSpace=wrap;html=1;" vertex="1" parent="1">
          <mxGeometry x="324" y="350" width="180" height="90" as="geometry" />
        </mxCell>
      </root>
    </mxGraphModel>
  </diagram>
</mxfile>
